<?xml version="1.0" standalone="no"?>
<!DOCTYPE svg PUBLIC "-//W3C//DTD SVG 20010904//EN"
 "http://www.w3.org/TR/2001/REC-SVG-20010904/DTD/svg10.dtd">
<svg version="1.0" xmlns="http://www.w3.org/2000/svg"
 width="2000.000000pt" height="2000.000000pt" viewBox="0 0 2000.000000 2000.000000"
 preserveAspectRatio="xMidYMid meet">

<g transform="translate(0.000000,2000.000000) scale(0.100000,-0.100000)"
fill="#000000" stroke="none">
<path d="M3260 19155 c-393 -48 -775 -181 -1116 -390 -183 -112 -330 -230
-505 -404 -243 -243 -384 -440 -529 -736 -170 -346 -255 -668 -279 -1055 -15
-230 -15 -12910 0 -13140 35 -557 219 -1058 556 -1508 114 -153 381 -421 534
-535 394 -294 803 -462 1309 -539 126 -19 13414 -19 13540 0 453 69 810 204
1170 443 690 459 1124 1177 1222 2019 19 170 19 13208 0 13380 -60 518 -240
974 -549 1388 -118 159 -381 421 -543 541 -401 299 -853 479 -1339 536 -110
13 -970 15 -6746 14 -5301 -1 -6641 -4 -6725 -14z m11176 -780 c362 -72 759
-196 1044 -328 l75 -34 -4495 -1496 c-2472 -823 -4507 -1499 -4522 -1502 -24
-6 -25 -9 -17 -38 26 -90 41 -266 36 -407 -9 -215 -54 -393 -145 -574 -225
-452 -654 -728 -1221 -786 -593 -60 -1133 143 -1446 544 -55 71 -165 249 -165
267 0 4 -458 -145 -1017 -331 l-1018 -338 -8 211 c-12 308 -2 931 18 1106 65
587 241 1138 523 1636 79 141 267 416 378 555 135 169 449 484 614 616 243
193 452 330 705 460 537 276 1075 421 1700 457 28 2 2026 4 4441 5 l4390 2
130 -25z m-846 -6129 c253 -32 464 -78 673 -148 1114 -372 1818 -1325 2011
-2723 55 -395 56 -451 56 -3133 l0 -2482 -1382 2 -1383 3 -6 2405 c-3 1323 -9
2419 -12 2435 -4 17 -14 82 -22 145 -57 415 -210 767 -428 985 -161 160 -336
255 -577 312 -132 31 -409 43 -553 23 -492 -66 -889 -358 -1130 -830 -92 -179
-108 -224 -144 -400 -16 -79 -17 -265 -22 -2580 l-6 -2495 -1381 -3 -1380 -2
0 4160 1 4160 1380 -2 1380 -3 3 -579 2 -579 75 109 c411 600 919 972 1557
1139 199 52 311 70 613 99 87 9 567 -4 675 -18z m-7210 -4326 l0 -4160 -1382
2 -1383 3 -3 4145 c-1 2280 0 4151 3 4158 3 9 290 12 1385 12 l1380 0 0 -4160z"/>
</g>
</svg>
